<svg width="447" height="139" viewBox="0 0 447 139"  xmlns="http://www.w3.org/2000/svg">
    <path d="M159.632 83.032L159.12 45.592C159.12 42.8613 164.645 41.496 175.696 41.496C180.901 41.496 185.253 42.4773 188.752 44.44C192.293 46.4027 194.064 49.2187 194.064 52.888C194.064 55.32 193.125 57.624 191.248 59.8C189.371 61.976 187.259 63.3627 184.912 63.96C187.856 64.856 190.395 66.1573 192.528 67.864C194.704 69.5707 195.792 71.7893 195.792 74.52C195.792 77.2507 194.619 79.6613 192.272 81.752C187.749 85.72 180.795 87.704 171.408 87.704C163.557 87.704 159.632 86.1467 159.632 83.032ZM163.792 64.152C166.437 63.128 169.36 62.616 172.56 62.616C174.053 62.616 175.547 62.616 177.04 62.616C179.301 62.616 182.032 61.6133 185.232 59.608C188.475 57.56 190.096 55.6187 190.096 53.784C190.096 51.0533 188.389 48.8987 184.976 47.32C181.563 45.6987 177.787 44.888 173.648 44.888C169.509 44.888 166.16 45.3573 163.6 46.296C163.6 47.064 163.6 48.1947 163.6 49.688C163.6 51.1387 163.621 53.5707 163.664 56.984C163.749 60.3547 163.792 62.744 163.792 64.152ZM191.12 74.52C191.12 70.808 187.109 68.0987 179.088 66.392C174.992 67.5867 171.109 68.184 167.44 68.184C166.245 68.184 165.072 68.12 163.92 67.992C164.048 73.0693 164.112 78.232 164.112 83.48C166.587 84.0347 169.083 84.312 171.6 84.312C174.16 84.312 176.421 84.1627 178.384 83.864C180.389 83.5227 182.373 83.0107 184.336 82.328C186.341 81.6453 187.963 80.6213 189.2 79.256C190.48 77.8907 191.12 76.312 191.12 74.52ZM222.563 68.568L222.243 75.928C222.243 79.64 222.669 82.136 223.523 83.416C224.035 84.2693 224.739 84.696 225.635 84.696C225.891 84.696 226.253 84.632 226.723 84.504C227.619 84.248 228.365 84.376 228.963 84.888C228.664 86.3813 227.171 87.128 224.483 87.128C222.648 87.128 221.432 86.36 220.835 84.824C220.365 83.672 220.024 82.2427 219.811 80.536C219.597 78.7867 219.427 77.592 219.299 76.952C216.525 82.2427 213.837 85.464 211.235 86.616C209.912 87.2133 208.376 87.512 206.627 87.512C204.877 87.512 203.512 86.68 202.531 85.016C201.592 83.3093 201.123 80.8347 201.123 77.592C201.123 74.3493 201.656 70.9573 202.723 67.416C203.789 63.832 205.347 60.824 207.395 58.392C209.443 55.9173 211.683 54.68 214.115 54.68C217.613 54.68 219.939 56.1307 221.091 59.032C222.072 61.5067 222.563 64.6853 222.563 68.568ZM206.883 66.52C206.285 68.824 205.837 71.0213 205.539 73.112C205.24 75.16 205.091 76.9947 205.091 78.616C205.091 80.1947 205.411 81.56 206.051 82.712C206.733 83.864 207.608 84.44 208.675 84.44C210.979 84.44 213.197 82.264 215.331 77.912C217.464 73.56 218.531 69.5067 218.531 65.752C218.531 63.32 217.891 61.3147 216.611 59.736C215.757 58.712 214.627 58.2 213.219 58.2C211.853 58.2 210.595 59.0107 209.443 60.632C208.333 62.2107 207.48 64.1733 206.883 66.52ZM255.089 77.528C255.089 79.7467 254.534 81.6027 253.425 83.096C252.315 84.5893 250.737 85.72 248.689 86.488C246.641 87.256 244.209 87.64 241.393 87.64C239.003 87.64 236.934 87.448 235.185 87.064C233.478 86.68 231.963 86.1467 230.641 85.464V80.344C232.006 81.0267 233.649 81.6667 235.569 82.264C237.531 82.8187 239.515 83.096 241.521 83.096C244.379 83.096 246.449 82.648 247.729 81.752C249.009 80.8133 249.649 79.576 249.649 78.04C249.649 77.1867 249.414 76.4187 248.945 75.736C248.475 75.0533 247.622 74.3707 246.385 73.688C245.19 73.0053 243.462 72.2373 241.201 71.384C238.982 70.5307 237.083 69.6773 235.505 68.824C233.926 67.9707 232.71 66.9467 231.857 65.752C231.003 64.5573 230.577 63.0213 230.577 61.144C230.577 58.2427 231.75 56.0027 234.097 54.424C236.486 52.8453 239.601 52.056 243.441 52.056C245.531 52.056 247.473 52.2693 249.265 52.696C251.099 53.08 252.806 53.6347 254.385 54.36L252.465 58.84C251.526 58.4133 250.523 58.0507 249.457 57.752C248.433 57.4107 247.387 57.1547 246.321 56.984C245.254 56.7707 244.166 56.664 243.057 56.664C240.753 56.664 238.982 57.048 237.745 57.816C236.55 58.5413 235.953 59.544 235.953 60.824C235.953 61.7627 236.23 62.5733 236.785 63.256C237.339 63.896 238.257 64.536 239.537 65.176C240.859 65.7733 242.609 66.4987 244.785 67.352C246.961 68.1627 248.817 68.9947 250.353 69.848C251.889 70.7013 253.062 71.7467 253.873 72.984C254.683 74.1787 255.089 75.6933 255.089 77.528ZM249.009 95.896C249.009 97.2613 248.646 98.4133 247.921 99.352C247.238 100.333 246.193 101.08 244.785 101.592C243.377 102.104 241.627 102.36 239.537 102.36C238.897 102.36 238.278 102.317 237.681 102.232C237.126 102.189 236.678 102.125 236.337 102.04V98.52C236.721 98.6053 237.233 98.6693 237.873 98.712C238.513 98.7973 239.131 98.84 239.729 98.84C241.265 98.84 242.438 98.6267 243.249 98.2C244.059 97.816 244.465 97.0907 244.465 96.024C244.465 94.9147 243.889 94.104 242.737 93.592C241.627 93.08 240.262 92.7173 238.641 92.504L241.393 87H245.105L243.441 90.392C244.465 90.6053 245.403 90.9253 246.257 91.352C247.11 91.8213 247.771 92.4187 248.241 93.144C248.753 93.8693 249.009 94.7867 249.009 95.896ZM263.826 48.728C263.826 44.504 263.25 41.6667 262.098 40.216C262.652 39.4053 263.612 39 264.978 39C265.234 39 265.511 39.0213 265.81 39.064C266.876 40.1307 267.41 43.224 267.41 48.344C267.41 51.1173 267.282 54.3387 267.026 58.008C266.514 64.408 266.258 69.1013 266.258 72.088C266.258 80.152 267.815 84.184 270.93 84.184C270.93 84.184 271.719 84.0347 273.298 83.736C273.682 83.736 274.002 83.9067 274.258 84.248C274.13 85.784 272.871 86.552 270.482 86.552C268.135 86.552 266.322 85.848 265.042 84.44C263.762 82.9893 262.951 81.1973 262.61 79.064C262.311 76.888 262.161 75.096 262.161 73.688C262.161 72.28 262.183 70.744 262.226 69.08C262.268 67.3733 262.46 64.9413 262.802 61.784C263.484 55.384 263.826 51.032 263.826 48.728ZM297.188 68.568L296.868 75.928C296.868 79.64 297.294 82.136 298.148 83.416C298.66 84.2693 299.364 84.696 300.26 84.696C300.516 84.696 300.878 84.632 301.348 84.504C302.244 84.248 302.99 84.376 303.588 84.888C303.289 86.3813 301.796 87.128 299.108 87.128C297.273 87.128 296.057 86.36 295.46 84.824C294.99 83.672 294.649 82.2427 294.436 80.536C294.222 78.7867 294.052 77.592 293.924 76.952C291.15 82.2427 288.462 85.464 285.86 86.616C284.537 87.2133 283.001 87.512 281.252 87.512C279.502 87.512 278.137 86.68 277.156 85.016C276.217 83.3093 275.748 80.8347 275.748 77.592C275.748 74.3493 276.281 70.9573 277.348 67.416C278.414 63.832 279.972 60.824 282.02 58.392C284.068 55.9173 286.308 54.68 288.74 54.68C292.238 54.68 294.564 56.1307 295.716 59.032C296.697 61.5067 297.188 64.6853 297.188 68.568ZM281.508 66.52C280.91 68.824 280.462 71.0213 280.164 73.112C279.865 75.16 279.716 76.9947 279.716 78.616C279.716 80.1947 280.036 81.56 280.676 82.712C281.358 83.864 282.233 84.44 283.3 84.44C285.604 84.44 287.822 82.264 289.956 77.912C292.089 73.56 293.156 69.5067 293.156 65.752C293.156 63.32 292.516 61.3147 291.236 59.736C290.382 58.712 289.252 58.2 287.844 58.2C286.478 58.2 285.22 59.0107 284.068 60.632C282.958 62.2107 282.105 64.1733 281.508 66.52Z" fill="white" />
    <path d="M28.965 97.6124C-59.2656 35.2924 132.507 6.33039 232.022 7.29094C241.757 5.44668 225.802 4.40928 216.608 4.1211C138.456 2.19999 0 20.5466 0 64.9243C0 128.609 174.422 137.254 214.986 138.695C289.622 141.346 465.667 127.457 445.385 67.5178C425.103 7.5791 257.171 -1.01049 203.628 0.0867675C169.879 0.778373 177.667 3.06449 185.78 4.1211C362.636 -1.93041 440.737 49.1335 440.737 75.3567C440.737 147.687 99.5451 147.465 28.965 97.6124Z"  />
</svg>